<?xml version="1.0" encoding="UTF-8" standalone="no"?><svg xmlns="http://www.w3.org/2000/svg" xmlns:xlink="http://www.w3.org/1999/xlink" contentScriptType="application/ecmascript" contentStyleType="text/css" height="283px" preserveAspectRatio="none" style="width:289px;height:283px;" version="1.1" viewBox="0 0 289 283" width="289px" zoomAndPan="magnify"><defs><filter height="300%" id="f1cy5u18eqom6e" width="300%" x="-1" y="-1"><feGaussianBlur result="blurOut" stdDeviation="2.0"/><feColorMatrix in="blurOut" result="blurOut2" type="matrix" values="0 0 0 0 0 0 0 0 0 0 0 0 0 0 0 0 0 0 .4 0"/><feOffset dx="4.0" dy="4.0" in="blurOut2" result="blurOut3"/><feBlend in="SourceGraphic" in2="blurOut3" mode="normal"/></filter></defs><g><!--class User--><rect fill="#FEFECE" filter="url(#f1cy5u18eqom6e)" height="48" id="User" style="stroke: #A80036; stroke-width: 1.5;" width="58" x="97.5" y="8"/><ellipse cx="112.5" cy="24" fill="#ADD1B2" rx="11" ry="11" style="stroke: #A80036; stroke-width: 1.0;"/><path d="M115.4731,29.6431 Q114.8921,29.9419 114.2529,30.0913 Q113.6138,30.2407 112.9082,30.2407 Q110.4014,30.2407 109.0815,28.5889 Q107.7617,26.937 107.7617,23.8159 Q107.7617,20.6865 109.0815,19.0347 Q110.4014,17.3828 112.9082,17.3828 Q113.6138,17.3828 114.2612,17.5322 Q114.9087,17.6816 115.4731,17.9805 L115.4731,20.7031 Q114.8423,20.1221 114.2488,19.8523 Q113.6553,19.5825 113.0244,19.5825 Q111.6797,19.5825 110.9949,20.6492 Q110.3101,21.7158 110.3101,23.8159 Q110.3101,25.9077 110.9949,26.9744 Q111.6797,28.041 113.0244,28.041 Q113.6553,28.041 114.2488,27.7712 Q114.8423,27.5015 115.4731,26.9204 Z "/><text fill="#000000" font-family="sans-serif" font-size="12" lengthAdjust="spacingAndGlyphs" textLength="26" x="126.5" y="28.5352">User</text><line style="stroke: #A80036; stroke-width: 1.5;" x1="98.5" x2="154.5" y1="40" y2="40"/><line style="stroke: #A80036; stroke-width: 1.5;" x1="98.5" x2="154.5" y1="48" y2="48"/><!--class Admin--><rect fill="#FEFECE" filter="url(#f1cy5u18eqom6e)" height="48" id="Admin" style="stroke: #A80036; stroke-width: 1.5;" width="69" x="209" y="8"/><ellipse cx="224" cy="24" fill="#B4A7E5" rx="11" ry="11" style="stroke: #A80036; stroke-width: 1.0;"/><path d="M219.9277,19.7651 L219.9277,17.6069 L227.3071,17.6069 L227.3071,19.7651 L224.8418,19.7651 L224.8418,27.8418 L227.3071,27.8418 L227.3071,30 L219.9277,30 L219.9277,27.8418 L222.3931,27.8418 L222.3931,19.7651 Z "/><text fill="#000000" font-family="sans-serif" font-size="12" font-style="italic" lengthAdjust="spacingAndGlyphs" textLength="37" x="238" y="28.5352">Admin</text><line style="stroke: #A80036; stroke-width: 1.5;" x1="210" x2="277" y1="40" y2="40"/><line style="stroke: #A80036; stroke-width: 1.5;" x1="210" x2="277" y1="48" y2="48"/><!--class AdminUser--><rect fill="#FEFECE" filter="url(#f1cy5u18eqom6e)" height="48" id="AdminUser" style="stroke: #A80036; stroke-width: 1.5;" width="95" x="146" y="116"/><ellipse cx="161" cy="132" fill="#ADD1B2" rx="11" ry="11" style="stroke: #A80036; stroke-width: 1.0;"/><path d="M163.9731,137.6431 Q163.3921,137.9419 162.7529,138.0913 Q162.1138,138.2407 161.4082,138.2407 Q158.9014,138.2407 157.5815,136.5889 Q156.2617,134.937 156.2617,131.8159 Q156.2617,128.6865 157.5815,127.0347 Q158.9014,125.3828 161.4082,125.3828 Q162.1138,125.3828 162.7612,125.5322 Q163.4087,125.6816 163.9731,125.9805 L163.9731,128.7031 Q163.3423,128.1221 162.7488,127.8523 Q162.1553,127.5825 161.5244,127.5825 Q160.1797,127.5825 159.4949,128.6492 Q158.8101,129.7158 158.8101,131.8159 Q158.8101,133.9077 159.4949,134.9744 Q160.1797,136.041 161.5244,136.041 Q162.1553,136.041 162.7488,135.7712 Q163.3423,135.5015 163.9731,134.9204 Z "/><text fill="#000000" font-family="sans-serif" font-size="12" lengthAdjust="spacingAndGlyphs" textLength="63" x="175" y="136.5352">AdminUser</text><line style="stroke: #A80036; stroke-width: 1.5;" x1="147" x2="240" y1="148" y2="148"/><line style="stroke: #A80036; stroke-width: 1.5;" x1="147" x2="240" y1="156" y2="156"/><!--class ExternalUser--><rect fill="#FEFECE" filter="url(#f1cy5u18eqom6e)" height="48" id="ExternalUser" style="stroke: #A80036; stroke-width: 1.5;" width="105" x="6" y="116"/><ellipse cx="21" cy="132" fill="#ADD1B2" rx="11" ry="11" style="stroke: #A80036; stroke-width: 1.0;"/><path d="M23.9731,137.6431 Q23.3921,137.9419 22.7529,138.0913 Q22.1138,138.2407 21.4082,138.2407 Q18.9014,138.2407 17.5815,136.5889 Q16.2617,134.937 16.2617,131.8159 Q16.2617,128.6865 17.5815,127.0347 Q18.9014,125.3828 21.4082,125.3828 Q22.1138,125.3828 22.7612,125.5322 Q23.4087,125.6816 23.9731,125.9805 L23.9731,128.7031 Q23.3423,128.1221 22.7488,127.8523 Q22.1553,127.5825 21.5244,127.5825 Q20.1797,127.5825 19.4949,128.6492 Q18.8101,129.7158 18.8101,131.8159 Q18.8101,133.9077 19.4949,134.9744 Q20.1797,136.041 21.5244,136.041 Q22.1553,136.041 22.7488,135.7712 Q23.3423,135.5015 23.9731,134.9204 Z "/><text fill="#000000" font-family="sans-serif" font-size="12" lengthAdjust="spacingAndGlyphs" textLength="73" x="35" y="136.5352">ExternalUser</text><line style="stroke: #A80036; stroke-width: 1.5;" x1="7" x2="110" y1="148" y2="148"/><line style="stroke: #A80036; stroke-width: 1.5;" x1="7" x2="110" y1="156" y2="156"/><!--class ExternalAdminUser--><rect fill="#FEFECE" filter="url(#f1cy5u18eqom6e)" height="48" id="ExternalAdminUser" style="stroke: #A80036; stroke-width: 1.5;" width="142" x="105.5" y="224"/><ellipse cx="120.5" cy="240" fill="#ADD1B2" rx="11" ry="11" style="stroke: #A80036; stroke-width: 1.0;"/><path d="M123.4731,245.6431 Q122.8921,245.9419 122.2529,246.0913 Q121.6138,246.2407 120.9082,246.2407 Q118.4014,246.2407 117.0815,244.5889 Q115.7617,242.937 115.7617,239.8159 Q115.7617,236.6865 117.0815,235.0347 Q118.4014,233.3828 120.9082,233.3828 Q121.6138,233.3828 122.2612,233.5322 Q122.9087,233.6816 123.4731,233.9805 L123.4731,236.7031 Q122.8423,236.1221 122.2488,235.8523 Q121.6553,235.5825 121.0244,235.5825 Q119.6797,235.5825 118.9949,236.6492 Q118.3101,237.7158 118.3101,239.8159 Q118.3101,241.9077 118.9949,242.9744 Q119.6797,244.041 121.0244,244.041 Q121.6553,244.041 122.2488,243.7712 Q122.8423,243.5015 123.4731,242.9204 Z "/><text fill="#000000" font-family="sans-serif" font-size="12" lengthAdjust="spacingAndGlyphs" textLength="110" x="134.5" y="244.5352">ExternalAdminUser</text><line style="stroke: #A80036; stroke-width: 1.5;" x1="106.5" x2="246.5" y1="256" y2="256"/><line style="stroke: #A80036; stroke-width: 1.5;" x1="106.5" x2="246.5" y1="264" y2="264"/><!--link User to AdminUser--><path d="M152.1875,73.4068 C161.0863,87.751 170.7638,103.3507 178.5141,115.8436 " fill="none" id="User-AdminUser" style="stroke: #A80036; stroke-width: 1.0;"/><polygon fill="none" points="146.1312,76.9227,141.5361,56.2373,158.0278,69.5424,146.1312,76.9227" style="stroke: #A80036; stroke-width: 1.0;"/><!--link Admin to AdminUser--><path d="M223.6642,74.8452 C217.2095,88.7875 210.2745,103.7671 204.6835,115.8436 " fill="none" id="Admin-AdminUser" style="stroke: #A80036; stroke-width: 1.0; stroke-dasharray: 7.0,7.0;"/><polygon fill="none" points="217.5242,71.4458,232.279,56.2373,230.2288,77.3275,217.5242,71.4458" style="stroke: #A80036; stroke-width: 1.0;"/><!--link User to ExternalUser--><path d="M100.4291,73.4068 C91.3975,87.751 81.5755,103.3507 73.7096,115.8436 " fill="none" id="User-ExternalUser" style="stroke: #A80036; stroke-width: 1.0;"/><polygon fill="none" points="94.6595,69.4323,111.2395,56.2373,106.5068,76.8917,94.6595,69.4323" style="stroke: #A80036; stroke-width: 1.0;"/><!--link ExternalUser to ExternalAdminUser--><path d="M99.854,177.8494 C116.5488,193.1294 135.3197,210.3096 150.1069,223.8436 " fill="none" id="ExternalUser-ExternalAdminUser" style="stroke: #A80036; stroke-width: 1.0;"/><polygon fill="none" points="95.0089,182.9042,84.9815,164.2373,104.4611,172.5768,95.0089,182.9042" style="stroke: #A80036; stroke-width: 1.0;"/><!--link Admin to ExternalAdminUser--><path d="M258.8885,75.6744 C265.7002,102.1157 269.8927,136.0201 258.5,164 C248.7394,187.9715 228.4822,208.832 210.5452,223.7685 " fill="none" id="Admin-ExternalAdminUser" style="stroke: #A80036; stroke-width: 1.0; stroke-dasharray: 7.0,7.0;"/><polygon fill="none" points="252.1257,77.4914,253.1118,56.3248,265.5407,73.4865,252.1257,77.4914" style="stroke: #A80036; stroke-width: 1.0;"/><!--
@startuml mixin-diamond-2

class User {
	
}

interface Admin {
	
}

class AdminUser extends User implements Admin {
	
}

class ExternalUser extends User {
	
}

class ExternalAdminUser extends ExternalUser implements Admin {
	
}

@enduml

PlantUML version 1.2017.16(Sun Sep 03 12:53:37 CEST 2017)
(GPL source distribution)
Java Runtime: Java(TM) SE Runtime Environment
JVM: Java HotSpot(TM) 64-Bit Server VM
Java Version: 1.8.0_144-b01
Operating System: Mac OS X
OS Version: 10.13.4
Default Encoding: UTF-8
Language: en
Country: US
--></g></svg>