<?xml version="1.0" encoding="UTF-8" standalone="no"?><svg xmlns="http://www.w3.org/2000/svg" xmlns:xlink="http://www.w3.org/1999/xlink" contentScriptType="application/ecmascript" contentStyleType="text/css" height="213px" preserveAspectRatio="none" style="width:329px;height:213px;" version="1.1" viewBox="0 0 329 213" width="329px" zoomAndPan="magnify"><defs><filter height="300%" id="f3njbpu07424p" width="300%" x="-1" y="-1"><feGaussianBlur result="blurOut" stdDeviation="2.0"/><feColorMatrix in="blurOut" result="blurOut2" type="matrix" values="0 0 0 0 0 0 0 0 0 0 0 0 0 0 0 0 0 0 .4 0"/><feOffset dx="4.0" dy="4.0" in="blurOut2" result="blurOut3"/><feBlend in="SourceGraphic" in2="blurOut3" mode="normal"/></filter></defs><g><!--class Message--><rect fill="#FEFECE" filter="url(#f3njbpu07424p)" height="60.9551" id="Message" style="stroke: #A80036; stroke-width: 1.5;" width="96" x="113.5" y="8"/><ellipse cx="134.8" cy="24" fill="#ADD1B2" rx="11" ry="11" style="stroke: #A80036; stroke-width: 1.0;"/><path d="M137.7731,29.6431 Q137.1921,29.9419 136.5529,30.0913 Q135.9138,30.2407 135.2082,30.2407 Q132.7014,30.2407 131.3815,28.5889 Q130.0617,26.937 130.0617,23.8159 Q130.0617,20.6865 131.3815,19.0347 Q132.7014,17.3828 135.2082,17.3828 Q135.9138,17.3828 136.5612,17.5322 Q137.2087,17.6816 137.7731,17.9805 L137.7731,20.7031 Q137.1423,20.1221 136.5488,19.8523 Q135.9553,19.5825 135.3244,19.5825 Q133.9797,19.5825 133.2949,20.6492 Q132.6101,21.7158 132.6101,23.8159 Q132.6101,25.9077 133.2949,26.9744 Q133.9797,28.041 135.3244,28.041 Q135.9553,28.041 136.5488,27.7712 Q137.1423,27.5015 137.7731,26.9204 Z "/><text fill="#000000" font-family="sans-serif" font-size="12" lengthAdjust="spacingAndGlyphs" textLength="50" x="150.2" y="28.5352">Message</text><line style="stroke: #A80036; stroke-width: 1.5;" x1="114.5" x2="208.5" y1="40" y2="40"/><line style="stroke: #A80036; stroke-width: 1.5;" x1="114.5" x2="208.5" y1="48" y2="48"/><ellipse cx="124.5" cy="59.9775" fill="#84BE84" rx="3" ry="3" style="stroke: #038048; stroke-width: 1.0;"/><text fill="#000000" font-family="sans-serif" font-size="11" lengthAdjust="spacingAndGlyphs" textLength="70" x="133.5" y="62.6348">Text(): string</text><!--class EscalatedMessage--><rect fill="#FEFECE" filter="url(#f3njbpu07424p)" height="73.9102" id="EscalatedMessage" style="stroke: #A80036; stroke-width: 1.5;" width="137" x="6" y="129"/><ellipse cx="21" cy="145" fill="#ADD1B2" rx="11" ry="11" style="stroke: #A80036; stroke-width: 1.0;"/><path d="M23.9731,150.6431 Q23.3921,150.9419 22.7529,151.0913 Q22.1138,151.2407 21.4082,151.2407 Q18.9014,151.2407 17.5815,149.5889 Q16.2617,147.937 16.2617,144.8159 Q16.2617,141.6865 17.5815,140.0347 Q18.9014,138.3828 21.4082,138.3828 Q22.1138,138.3828 22.7612,138.5322 Q23.4087,138.6816 23.9731,138.9805 L23.9731,141.7031 Q23.3423,141.1221 22.7488,140.8523 Q22.1553,140.5825 21.5244,140.5825 Q20.1797,140.5825 19.4949,141.6492 Q18.8101,142.7158 18.8101,144.8159 Q18.8101,146.9077 19.4949,147.9744 Q20.1797,149.041 21.5244,149.041 Q22.1553,149.041 22.7488,148.7712 Q23.3423,148.5015 23.9731,147.9204 Z "/><text fill="#000000" font-family="sans-serif" font-size="12" lengthAdjust="spacingAndGlyphs" textLength="105" x="35" y="149.5352">EscalatedMessage</text><line style="stroke: #A80036; stroke-width: 1.5;" x1="7" x2="142" y1="161" y2="161"/><line style="stroke: #A80036; stroke-width: 1.5;" x1="7" x2="142" y1="169" y2="169"/><ellipse cx="17" cy="180.9775" fill="#84BE84" rx="3" ry="3" style="stroke: #038048; stroke-width: 1.0;"/><text fill="#000000" font-family="sans-serif" font-size="11" lengthAdjust="spacingAndGlyphs" textLength="70" x="26" y="183.6348">Text(): string</text><ellipse cx="17" cy="193.9326" fill="#84BE84" rx="3" ry="3" style="stroke: #038048; stroke-width: 1.0;"/><text fill="#000000" font-family="sans-serif" font-size="11" lengthAdjust="spacingAndGlyphs" textLength="96" x="26" y="196.5898">Escalated(): string</text><!--class UnicodeMessage--><rect fill="#FEFECE" filter="url(#f3njbpu07424p)" height="73.9102" id="UnicodeMessage" style="stroke: #A80036; stroke-width: 1.5;" width="140" x="178.5" y="129"/><ellipse cx="198.9" cy="145" fill="#ADD1B2" rx="11" ry="11" style="stroke: #A80036; stroke-width: 1.0;"/><path d="M201.8731,150.6431 Q201.2921,150.9419 200.6529,151.0913 Q200.0138,151.2407 199.3082,151.2407 Q196.8014,151.2407 195.4815,149.5889 Q194.1617,147.937 194.1617,144.8159 Q194.1617,141.6865 195.4815,140.0347 Q196.8014,138.3828 199.3082,138.3828 Q200.0138,138.3828 200.6612,138.5322 Q201.3087,138.6816 201.8731,138.9805 L201.8731,141.7031 Q201.2423,141.1221 200.6488,140.8523 Q200.0553,140.5825 199.4244,140.5825 Q198.0797,140.5825 197.3949,141.6492 Q196.7101,142.7158 196.7101,144.8159 Q196.7101,146.9077 197.3949,147.9744 Q198.0797,149.041 199.4244,149.041 Q200.0553,149.041 200.6488,148.7712 Q201.2423,148.5015 201.8731,147.9204 Z "/><text fill="#000000" font-family="sans-serif" font-size="12" lengthAdjust="spacingAndGlyphs" textLength="96" x="214.1" y="149.5352">UnicodeMessage</text><line style="stroke: #A80036; stroke-width: 1.5;" x1="179.5" x2="317.5" y1="161" y2="161"/><line style="stroke: #A80036; stroke-width: 1.5;" x1="179.5" x2="317.5" y1="169" y2="169"/><ellipse cx="189.5" cy="180.9775" fill="#84BE84" rx="3" ry="3" style="stroke: #038048; stroke-width: 1.0;"/><text fill="#000000" font-family="sans-serif" font-size="11" lengthAdjust="spacingAndGlyphs" textLength="70" x="198.5" y="183.6348">Text(): string</text><ellipse cx="189.5" cy="193.9326" fill="#84BE84" rx="3" ry="3" style="stroke: #038048; stroke-width: 1.0;"/><text fill="#000000" font-family="sans-serif" font-size="11" lengthAdjust="spacingAndGlyphs" textLength="114" x="198.5" y="196.5898">UnicodeText(): string</text><!--link Message to EscalatedMessage--><path d="M129.3326,85.6419 C119.5959,99.9112 109.0449,115.3739 99.8229,128.8888 " fill="none" id="Message-EscalatedMessage" style="stroke: #A80036; stroke-width: 1.0;"/><polygon fill="none" points="123.6064,81.6144,140.6613,69.0394,135.1707,89.5054,123.6064,81.6144" style="stroke: #A80036; stroke-width: 1.0;"/><!--link Message to UnicodeMessage--><path d="M193.6674,85.6419 C203.4041,99.9112 213.9551,115.3739 223.1771,128.8888 " fill="none" id="Message-UnicodeMessage" style="stroke: #A80036; stroke-width: 1.0;"/><polygon fill="none" points="187.8293,89.5054,182.3387,69.0394,199.3936,81.6144,187.8293,89.5054" style="stroke: #A80036; stroke-width: 1.0;"/><!--
@startuml mixin-diamond-1

class Message {
	+Text(): string
}

class EscalatedMessage extends Message {
	+Text(): string
	+Escalated(): string
}

class UnicodeMessage extends Message {
	+Text(): string
	+UnicodeText(): string
}


@enduml

PlantUML version 1.2018.03(Thu Apr 05 18:59:15 CEST 2018)
(GPL source distribution)
Java Runtime: Java(TM) SE Runtime Environment
JVM: Java HotSpot(TM) 64-Bit Server VM
Java Version: 1.8.0_131-b11
Operating System: Mac OS X
OS Version: 10.13.4
Default Encoding: UTF-8
Language: en
Country: US
--></g></svg>