<?xml version="1.0" encoding="UTF-8" standalone="no"?><svg xmlns="http://www.w3.org/2000/svg" xmlns:xlink="http://www.w3.org/1999/xlink" contentScriptType="application/ecmascript" contentStyleType="text/css" height="360px" preserveAspectRatio="none" style="width:383px;height:360px;" version="1.1" viewBox="0 0 383 360" width="383px" zoomAndPan="magnify"><defs><filter height="300%" id="fypaao1x1n1w" width="300%" x="-1" y="-1"><feGaussianBlur result="blurOut" stdDeviation="2.0"/><feColorMatrix in="blurOut" result="blurOut2" type="matrix" values="0 0 0 0 0 0 0 0 0 0 0 0 0 0 0 0 0 0 .4 0"/><feOffset dx="4.0" dy="4.0" in="blurOut2" result="blurOut3"/><feBlend in="SourceGraphic" in2="blurOut3" mode="normal"/></filter></defs><g><!--class Message--><rect fill="#FEFECE" filter="url(#fypaao1x1n1w)" height="60.9551" id="Message" style="stroke: #A80036; stroke-width: 1.5;" width="96" x="104" y="8"/><ellipse cx="125.3" cy="24" fill="#ADD1B2" rx="11" ry="11" style="stroke: #A80036; stroke-width: 1.0;"/><path d="M128.2731,29.6431 Q127.6921,29.9419 127.0529,30.0913 Q126.4138,30.2407 125.7082,30.2407 Q123.2014,30.2407 121.8815,28.5889 Q120.5617,26.937 120.5617,23.8159 Q120.5617,20.6865 121.8815,19.0347 Q123.2014,17.3828 125.7082,17.3828 Q126.4138,17.3828 127.0612,17.5322 Q127.7087,17.6816 128.2731,17.9805 L128.2731,20.7031 Q127.6423,20.1221 127.0488,19.8523 Q126.4553,19.5825 125.8244,19.5825 Q124.4797,19.5825 123.7949,20.6492 Q123.1101,21.7158 123.1101,23.8159 Q123.1101,25.9077 123.7949,26.9744 Q124.4797,28.041 125.8244,28.041 Q126.4553,28.041 127.0488,27.7712 Q127.6423,27.5015 128.2731,26.9204 Z "/><text fill="#000000" font-family="sans-serif" font-size="12" lengthAdjust="spacingAndGlyphs" textLength="50" x="140.7" y="28.5352">Message</text><line style="stroke: #A80036; stroke-width: 1.5;" x1="105" x2="199" y1="40" y2="40"/><line style="stroke: #A80036; stroke-width: 1.5;" x1="105" x2="199" y1="48" y2="48"/><ellipse cx="115" cy="59.9775" fill="#84BE84" rx="3" ry="3" style="stroke: #038048; stroke-width: 1.0;"/><text fill="#000000" font-family="sans-serif" font-size="11" lengthAdjust="spacingAndGlyphs" textLength="70" x="124" y="62.6348">Text(): string</text><!--class IEscalatable--><rect fill="#FEFECE" filter="url(#fypaao1x1n1w)" height="60.9551" id="IEscalatable" style="stroke: #A80036; stroke-width: 1.5;" width="122" x="250" y="8"/><ellipse cx="274.9" cy="24" fill="#B4A7E5" rx="11" ry="11" style="stroke: #A80036; stroke-width: 1.0;"/><path d="M270.8277,19.7651 L270.8277,17.6069 L278.2071,17.6069 L278.2071,19.7651 L275.7418,19.7651 L275.7418,27.8418 L278.2071,27.8418 L278.2071,30 L270.8277,30 L270.8277,27.8418 L273.2931,27.8418 L273.2931,19.7651 Z "/><text fill="#000000" font-family="sans-serif" font-size="12" font-style="italic" lengthAdjust="spacingAndGlyphs" textLength="68" x="291.1" y="28.5352">IEscalatable</text><line style="stroke: #A80036; stroke-width: 1.5;" x1="251" x2="371" y1="40" y2="40"/><line style="stroke: #A80036; stroke-width: 1.5;" x1="251" x2="371" y1="48" y2="48"/><ellipse cx="261" cy="59.9775" fill="#84BE84" rx="3" ry="3" style="stroke: #038048; stroke-width: 1.0;"/><text fill="#000000" font-family="sans-serif" font-size="11" lengthAdjust="spacingAndGlyphs" textLength="96" x="270" y="62.6348">Escalated(): string</text><!--class EscalatedMessage--><rect fill="#FEFECE" filter="url(#fypaao1x1n1w)" height="73.9102" id="EscalatedMessage" style="stroke: #A80036; stroke-width: 1.5;" width="137" x="181.5" y="129"/><ellipse cx="196.5" cy="145" fill="#ADD1B2" rx="11" ry="11" style="stroke: #A80036; stroke-width: 1.0;"/><path d="M199.4731,150.6431 Q198.8921,150.9419 198.2529,151.0913 Q197.6138,151.2407 196.9082,151.2407 Q194.4014,151.2407 193.0815,149.5889 Q191.7617,147.937 191.7617,144.8159 Q191.7617,141.6865 193.0815,140.0347 Q194.4014,138.3828 196.9082,138.3828 Q197.6138,138.3828 198.2612,138.5322 Q198.9087,138.6816 199.4731,138.9805 L199.4731,141.7031 Q198.8423,141.1221 198.2488,140.8523 Q197.6553,140.5825 197.0244,140.5825 Q195.6797,140.5825 194.9949,141.6492 Q194.3101,142.7158 194.3101,144.8159 Q194.3101,146.9077 194.9949,147.9744 Q195.6797,149.041 197.0244,149.041 Q197.6553,149.041 198.2488,148.7712 Q198.8423,148.5015 199.4731,147.9204 Z "/><text fill="#000000" font-family="sans-serif" font-size="12" lengthAdjust="spacingAndGlyphs" textLength="105" x="210.5" y="149.5352">EscalatedMessage</text><line style="stroke: #A80036; stroke-width: 1.5;" x1="182.5" x2="317.5" y1="161" y2="161"/><line style="stroke: #A80036; stroke-width: 1.5;" x1="182.5" x2="317.5" y1="169" y2="169"/><ellipse cx="192.5" cy="180.9775" fill="#84BE84" rx="3" ry="3" style="stroke: #038048; stroke-width: 1.0;"/><text fill="#000000" font-family="sans-serif" font-size="11" lengthAdjust="spacingAndGlyphs" textLength="70" x="201.5" y="183.6348">Text(): string</text><ellipse cx="192.5" cy="193.9326" fill="#84BE84" rx="3" ry="3" style="stroke: #038048; stroke-width: 1.0;"/><text fill="#000000" font-family="sans-serif" font-size="11" lengthAdjust="spacingAndGlyphs" textLength="96" x="201.5" y="196.5898">Escalated(): string</text><!--class UnicodeMessage--><rect fill="#FEFECE" filter="url(#fypaao1x1n1w)" height="73.9102" id="UnicodeMessage" style="stroke: #A80036; stroke-width: 1.5;" width="140" x="6" y="129"/><ellipse cx="26.4" cy="145" fill="#ADD1B2" rx="11" ry="11" style="stroke: #A80036; stroke-width: 1.0;"/><path d="M29.3731,150.6431 Q28.7921,150.9419 28.1529,151.0913 Q27.5138,151.2407 26.8082,151.2407 Q24.3014,151.2407 22.9815,149.5889 Q21.6617,147.937 21.6617,144.8159 Q21.6617,141.6865 22.9815,140.0347 Q24.3014,138.3828 26.8082,138.3828 Q27.5138,138.3828 28.1612,138.5322 Q28.8087,138.6816 29.3731,138.9805 L29.3731,141.7031 Q28.7423,141.1221 28.1488,140.8523 Q27.5553,140.5825 26.9244,140.5825 Q25.5797,140.5825 24.8949,141.6492 Q24.2101,142.7158 24.2101,144.8159 Q24.2101,146.9077 24.8949,147.9744 Q25.5797,149.041 26.9244,149.041 Q27.5553,149.041 28.1488,148.7712 Q28.7423,148.5015 29.3731,147.9204 Z "/><text fill="#000000" font-family="sans-serif" font-size="12" lengthAdjust="spacingAndGlyphs" textLength="96" x="41.6" y="149.5352">UnicodeMessage</text><line style="stroke: #A80036; stroke-width: 1.5;" x1="7" x2="145" y1="161" y2="161"/><line style="stroke: #A80036; stroke-width: 1.5;" x1="7" x2="145" y1="169" y2="169"/><ellipse cx="17" cy="180.9775" fill="#84BE84" rx="3" ry="3" style="stroke: #038048; stroke-width: 1.0;"/><text fill="#000000" font-family="sans-serif" font-size="11" lengthAdjust="spacingAndGlyphs" textLength="70" x="26" y="183.6348">Text(): string</text><ellipse cx="17" cy="193.9326" fill="#84BE84" rx="3" ry="3" style="stroke: #038048; stroke-width: 1.0;"/><text fill="#000000" font-family="sans-serif" font-size="11" lengthAdjust="spacingAndGlyphs" textLength="114" x="26" y="196.5898">UnicodeText(): string</text><!--class EscalatedUnicodeMessage--><rect fill="#FEFECE" filter="url(#fypaao1x1n1w)" height="86.8652" id="EscalatedUnicodeMessage" style="stroke: #A80036; stroke-width: 1.5;" width="183" x="132.5" y="263"/><ellipse cx="147.5" cy="279" fill="#ADD1B2" rx="11" ry="11" style="stroke: #A80036; stroke-width: 1.0;"/><path d="M150.4731,284.6431 Q149.8921,284.9419 149.2529,285.0913 Q148.6138,285.2407 147.9082,285.2407 Q145.4014,285.2407 144.0815,283.5889 Q142.7617,281.937 142.7617,278.8159 Q142.7617,275.6865 144.0815,274.0347 Q145.4014,272.3828 147.9082,272.3828 Q148.6138,272.3828 149.2612,272.5322 Q149.9087,272.6816 150.4731,272.9805 L150.4731,275.7031 Q149.8423,275.1221 149.2488,274.8523 Q148.6553,274.5825 148.0244,274.5825 Q146.6797,274.5825 145.9949,275.6492 Q145.3101,276.7158 145.3101,278.8159 Q145.3101,280.9077 145.9949,281.9744 Q146.6797,283.041 148.0244,283.041 Q148.6553,283.041 149.2488,282.7712 Q149.8423,282.5015 150.4731,281.9204 Z "/><text fill="#000000" font-family="sans-serif" font-size="12" lengthAdjust="spacingAndGlyphs" textLength="151" x="161.5" y="283.5352">EscalatedUnicodeMessage</text><line style="stroke: #A80036; stroke-width: 1.5;" x1="133.5" x2="314.5" y1="295" y2="295"/><line style="stroke: #A80036; stroke-width: 1.5;" x1="133.5" x2="314.5" y1="303" y2="303"/><ellipse cx="143.5" cy="314.9775" fill="#84BE84" rx="3" ry="3" style="stroke: #038048; stroke-width: 1.0;"/><text fill="#000000" font-family="sans-serif" font-size="11" lengthAdjust="spacingAndGlyphs" textLength="70" x="152.5" y="317.6348">Text(): string</text><ellipse cx="143.5" cy="327.9326" fill="#84BE84" rx="3" ry="3" style="stroke: #038048; stroke-width: 1.0;"/><text fill="#000000" font-family="sans-serif" font-size="11" lengthAdjust="spacingAndGlyphs" textLength="114" x="152.5" y="330.5898">UnicodeText(): string</text><ellipse cx="143.5" cy="340.8877" fill="#84BE84" rx="3" ry="3" style="stroke: #038048; stroke-width: 1.0;"/><text fill="#000000" font-family="sans-serif" font-size="11" lengthAdjust="spacingAndGlyphs" textLength="96" x="152.5" y="343.5449">Escalated(): string</text><!--link Message to EscalatedMessage--><path d="M187.8733,85.1719 C198.941,99.5712 210.9732,115.2253 221.4754,128.8888 " fill="none" id="Message-EscalatedMessage" style="stroke: #A80036; stroke-width: 1.0;"/><polygon fill="none" points="182.1117,89.1624,175.4734,69.0394,193.2117,80.6307,182.1117,89.1624" style="stroke: #A80036; stroke-width: 1.0;"/><!--link IEscalatable to EscalatedMessage--><path d="M287.5424,87.5302 C280.9704,101.2668 273.9369,115.9679 267.7551,128.8888 " fill="none" id="IEscalatable-EscalatedMessage" style="stroke: #A80036; stroke-width: 1.0; stroke-dasharray: 7.0,7.0;"/><polygon fill="none" points="281.4428,84.0598,296.389,69.0394,294.0718,90.102,281.4428,84.0598" style="stroke: #A80036; stroke-width: 1.0;"/><!--link Message to UnicodeMessage--><path d="M123.3379,86.5844 C114.9895,100.59 106.0001,115.6709 98.1212,128.8888 " fill="none" id="Message-UnicodeMessage" style="stroke: #A80036; stroke-width: 1.0;"/><polygon fill="none" points="117.5429,82.6348,133.7961,69.0394,129.5686,89.8031,117.5429,82.6348" style="stroke: #A80036; stroke-width: 1.0;"/><!--link UnicodeMessage to EscalatedUnicodeMessage--><path d="M129.8835,217.1529 C145.6522,232.1225 162.7397,248.3442 177.9729,262.8053 " fill="none" id="UnicodeMessage-EscalatedUnicodeMessage" style="stroke: #A80036; stroke-width: 1.0;"/><polygon fill="none" points="124.9582,222.1291,115.2727,203.2825,134.5971,211.9757,124.9582,222.1291" style="stroke: #A80036; stroke-width: 1.0;"/><!--link IEscalatable to EscalatedUnicodeMessage--><path d="M332.2955,88.0713 C343.502,121.7244 351.9436,166.5574 336,203 C325.8656,226.1644 307.706,246.4494 288.9192,262.7798 " fill="none" id="IEscalatable-EscalatedUnicodeMessage" style="stroke: #A80036; stroke-width: 1.0; stroke-dasharray: 7.0,7.0;"/><polygon fill="none" points="325.6952,90.4046,325.3483,69.2178,338.8318,85.564,325.6952,90.4046" style="stroke: #A80036; stroke-width: 1.0;"/><!--
@startuml mixin-diamond-2

class Message {
	+Text(): string
}

interface IEscalatable {
	+Escalated(): string
}

class EscalatedMessage extends Message implements IEscalatable{
	+Text(): string
	+Escalated(): string
}

class UnicodeMessage extends Message {
	+Text(): string
	+UnicodeText(): string
}

class EscalatedUnicodeMessage extends UnicodeMessage implements IEscalatable {
	+Text(): string
	+UnicodeText(): string
	+Escalated(): string
}

@enduml

PlantUML version 1.2018.03(Thu Apr 05 18:59:15 CEST 2018)
(GPL source distribution)
Java Runtime: Java(TM) SE Runtime Environment
JVM: Java HotSpot(TM) 64-Bit Server VM
Java Version: 1.8.0_131-b11
Operating System: Mac OS X
OS Version: 10.13.4
Default Encoding: UTF-8
Language: en
Country: US
--></g></svg>